<svg
   xmlns="http://www.w3.org/2000/svg"
   xml:space="preserve"
   enable-background="new 0 0 512 512"
   viewBox="0 0 512 384"
   height="384"
   width="512"
   y="0px"
   x="0px"
   id="Layer_1"
   version="1.1">
<g
   transform="translate(0,-64)"
   id="g16357">
	<g
   id="g16355">
		<path
   style="clip-rule:evenodd;fill:#1d1d1b;fill-rule:evenodd"
   id="path16353"
   d="M 33.604,256 C 32.562,250.833 32,245.479 32,240 c 0,-44.188 35.812,-80 80,-80 10.812,0 21.062,2.208 30.438,6.083 C 163.667,124.667 206.291,96 256,96 c 49.709,0 92.334,28.667 113.541,70.083 C 378.938,162.208 389.209,160 400,160 c 44.188,0 80,35.812 80,80 0,5.479 -0.562,10.833 -1.625,16 h 32 c 0.792,-5.271 1.625,-10.521 1.625,-16 0,-61.75 -50.25,-112 -112,-112 -5.312,0 -10.562,0.375 -15.792,1.125 C 354.334,88.417 307.188,64 256,64 204.812,64 157.688,88.417 127.792,129.125 122.562,128.375 117.312,128 112,128 50.25,128 0,178.25 0,240 c 0,5.479 0.854,10.729 1.625,16 z M 496,288 H 16 c -8.833,0 -16,7.167 -16,16 0,8.833 7.167,16 16,16 h 480 c 8.833,0 16,-7.167 16,-16 0,-8.833 -7.167,-16 -16,-16 z m 0,64 H 16 c -8.833,0 -16,7.167 -16,16 0,8.833 7.167,16 16,16 h 480 c 8.833,0 16,-7.167 16,-16 0,-8.833 -7.167,-16 -16,-16 z m 0,64 H 16 c -8.833,0 -16,7.167 -16,16 0,8.833 7.167,16 16,16 h 480 c 8.833,0 16,-7.167 16,-16 0,-8.833 -7.167,-16 -16,-16 z" />
	</g>
</g>
</svg>